<mxfile host="app.diagrams.net" modified="2023-11-22T00:41:48.553Z" agent="Mozilla/5.0 (Windows NT 10.0; Win64; x64) AppleWebKit/537.36 (KHTML, like Gecko) Chrome/119.0.0.0 Safari/537.36" etag="jIo7uzrpaKjMTU78-KiG" version="22.1.3" type="github">
  <diagram id="C5RBs43oDa-KdzZeNtuy" name="Page-1">
    <mxGraphModel dx="1172" dy="624" grid="1" gridSize="10" guides="1" tooltips="1" connect="1" arrows="1" fold="1" page="1" pageScale="1" pageWidth="827" pageHeight="1169" math="0" shadow="0">
      <root>
        <mxCell id="WIyWlLk6GJQsqaUBKTNV-0" />
        <mxCell id="WIyWlLk6GJQsqaUBKTNV-1" parent="WIyWlLk6GJQsqaUBKTNV-0" />
        <mxCell id="BUbnw9Mv0IqS4cnp5p8G-26" style="edgeStyle=orthogonalEdgeStyle;rounded=0;orthogonalLoop=1;jettySize=auto;html=1;exitX=0.5;exitY=1;exitDx=0;exitDy=0;" edge="1" parent="WIyWlLk6GJQsqaUBKTNV-1" source="BUbnw9Mv0IqS4cnp5p8G-14" target="BUbnw9Mv0IqS4cnp5p8G-16">
          <mxGeometry relative="1" as="geometry" />
        </mxCell>
        <mxCell id="BUbnw9Mv0IqS4cnp5p8G-14" value="Mulai" style="rounded=1;whiteSpace=wrap;html=1;" vertex="1" parent="WIyWlLk6GJQsqaUBKTNV-1">
          <mxGeometry x="270" y="80" width="120" height="30" as="geometry" />
        </mxCell>
        <mxCell id="BUbnw9Mv0IqS4cnp5p8G-27" style="edgeStyle=orthogonalEdgeStyle;rounded=0;orthogonalLoop=1;jettySize=auto;html=1;exitX=0.5;exitY=1;exitDx=0;exitDy=0;entryX=0.5;entryY=0;entryDx=0;entryDy=0;" edge="1" parent="WIyWlLk6GJQsqaUBKTNV-1" source="BUbnw9Mv0IqS4cnp5p8G-16" target="BUbnw9Mv0IqS4cnp5p8G-18">
          <mxGeometry relative="1" as="geometry" />
        </mxCell>
        <mxCell id="BUbnw9Mv0IqS4cnp5p8G-16" value="&amp;nbsp; Datang di tempat futsal" style="shape=parallelogram;perimeter=parallelogramPerimeter;whiteSpace=wrap;html=1;fixedSize=1;" vertex="1" parent="WIyWlLk6GJQsqaUBKTNV-1">
          <mxGeometry x="270" y="150" width="120" height="50" as="geometry" />
        </mxCell>
        <mxCell id="BUbnw9Mv0IqS4cnp5p8G-28" style="edgeStyle=orthogonalEdgeStyle;rounded=0;orthogonalLoop=1;jettySize=auto;html=1;exitX=1;exitY=0.5;exitDx=0;exitDy=0;entryX=0;entryY=0.5;entryDx=0;entryDy=0;" edge="1" parent="WIyWlLk6GJQsqaUBKTNV-1" source="BUbnw9Mv0IqS4cnp5p8G-18" target="BUbnw9Mv0IqS4cnp5p8G-20">
          <mxGeometry relative="1" as="geometry" />
        </mxCell>
        <mxCell id="BUbnw9Mv0IqS4cnp5p8G-18" value="Menanyakan &lt;br&gt;Jadwal" style="shape=parallelogram;perimeter=parallelogramPerimeter;whiteSpace=wrap;html=1;fixedSize=1;" vertex="1" parent="WIyWlLk6GJQsqaUBKTNV-1">
          <mxGeometry x="265" y="230" width="130" height="60" as="geometry" />
        </mxCell>
        <mxCell id="BUbnw9Mv0IqS4cnp5p8G-29" style="edgeStyle=orthogonalEdgeStyle;rounded=0;orthogonalLoop=1;jettySize=auto;html=1;exitX=0.5;exitY=1;exitDx=0;exitDy=0;entryX=0.5;entryY=0;entryDx=0;entryDy=0;" edge="1" parent="WIyWlLk6GJQsqaUBKTNV-1" source="BUbnw9Mv0IqS4cnp5p8G-20" target="BUbnw9Mv0IqS4cnp5p8G-21">
          <mxGeometry relative="1" as="geometry" />
        </mxCell>
        <mxCell id="BUbnw9Mv0IqS4cnp5p8G-20" value="Melakukan&amp;nbsp;&lt;br&gt;Pengecekan" style="shape=parallelogram;perimeter=parallelogramPerimeter;whiteSpace=wrap;html=1;fixedSize=1;" vertex="1" parent="WIyWlLk6GJQsqaUBKTNV-1">
          <mxGeometry x="480" y="230" width="120" height="60" as="geometry" />
        </mxCell>
        <mxCell id="BUbnw9Mv0IqS4cnp5p8G-30" style="edgeStyle=orthogonalEdgeStyle;rounded=0;orthogonalLoop=1;jettySize=auto;html=1;exitX=0;exitY=0.5;exitDx=0;exitDy=0;entryX=0.5;entryY=1;entryDx=0;entryDy=0;" edge="1" parent="WIyWlLk6GJQsqaUBKTNV-1" source="BUbnw9Mv0IqS4cnp5p8G-21" target="BUbnw9Mv0IqS4cnp5p8G-18">
          <mxGeometry relative="1" as="geometry" />
        </mxCell>
        <mxCell id="BUbnw9Mv0IqS4cnp5p8G-31" style="edgeStyle=orthogonalEdgeStyle;rounded=0;orthogonalLoop=1;jettySize=auto;html=1;exitX=0.5;exitY=1;exitDx=0;exitDy=0;entryX=1;entryY=0.5;entryDx=0;entryDy=0;" edge="1" parent="WIyWlLk6GJQsqaUBKTNV-1" source="BUbnw9Mv0IqS4cnp5p8G-21" target="BUbnw9Mv0IqS4cnp5p8G-24">
          <mxGeometry relative="1" as="geometry">
            <mxPoint x="410" y="420" as="targetPoint" />
          </mxGeometry>
        </mxCell>
        <mxCell id="BUbnw9Mv0IqS4cnp5p8G-21" value="&amp;nbsp; Ketersediaan&amp;nbsp;&lt;br&gt;Lapangan" style="rhombus;whiteSpace=wrap;html=1;" vertex="1" parent="WIyWlLk6GJQsqaUBKTNV-1">
          <mxGeometry x="485" y="325" width="110" height="70" as="geometry" />
        </mxCell>
        <mxCell id="BUbnw9Mv0IqS4cnp5p8G-34" style="edgeStyle=orthogonalEdgeStyle;rounded=0;orthogonalLoop=1;jettySize=auto;html=1;exitX=0.5;exitY=1;exitDx=0;exitDy=0;entryX=0.5;entryY=0;entryDx=0;entryDy=0;" edge="1" parent="WIyWlLk6GJQsqaUBKTNV-1" source="BUbnw9Mv0IqS4cnp5p8G-23" target="BUbnw9Mv0IqS4cnp5p8G-25">
          <mxGeometry relative="1" as="geometry" />
        </mxCell>
        <mxCell id="BUbnw9Mv0IqS4cnp5p8G-23" value="catat Jadwal&amp;nbsp;&lt;br&gt;pesan" style="shape=parallelogram;perimeter=parallelogramPerimeter;whiteSpace=wrap;html=1;fixedSize=1;" vertex="1" parent="WIyWlLk6GJQsqaUBKTNV-1">
          <mxGeometry x="480" y="461" width="120" height="60" as="geometry" />
        </mxCell>
        <mxCell id="BUbnw9Mv0IqS4cnp5p8G-33" style="edgeStyle=orthogonalEdgeStyle;rounded=0;orthogonalLoop=1;jettySize=auto;html=1;exitX=0.5;exitY=1;exitDx=0;exitDy=0;entryX=0;entryY=0.5;entryDx=0;entryDy=0;" edge="1" parent="WIyWlLk6GJQsqaUBKTNV-1">
          <mxGeometry relative="1" as="geometry">
            <mxPoint x="330" y="440" as="sourcePoint" />
            <mxPoint x="491" y="491" as="targetPoint" />
            <Array as="points">
              <mxPoint x="330" y="490" />
              <mxPoint x="436" y="490" />
              <mxPoint x="436" y="491" />
            </Array>
          </mxGeometry>
        </mxCell>
        <mxCell id="BUbnw9Mv0IqS4cnp5p8G-24" value="Membayar" style="rounded=1;whiteSpace=wrap;html=1;" vertex="1" parent="WIyWlLk6GJQsqaUBKTNV-1">
          <mxGeometry x="269" y="390" width="120" height="50" as="geometry" />
        </mxCell>
        <mxCell id="BUbnw9Mv0IqS4cnp5p8G-25" value="END" style="rounded=1;whiteSpace=wrap;html=1;" vertex="1" parent="WIyWlLk6GJQsqaUBKTNV-1">
          <mxGeometry x="485" y="560" width="120" height="50" as="geometry" />
        </mxCell>
        <mxCell id="BUbnw9Mv0IqS4cnp5p8G-35" value="Ada" style="text;html=1;align=center;verticalAlign=middle;resizable=0;points=[];autosize=1;strokeColor=none;fillColor=none;" vertex="1" parent="WIyWlLk6GJQsqaUBKTNV-1">
          <mxGeometry x="455" y="388" width="40" height="30" as="geometry" />
        </mxCell>
        <mxCell id="BUbnw9Mv0IqS4cnp5p8G-36" value="Tidak Ada" style="text;html=1;align=center;verticalAlign=middle;resizable=0;points=[];autosize=1;strokeColor=none;fillColor=none;" vertex="1" parent="WIyWlLk6GJQsqaUBKTNV-1">
          <mxGeometry x="320" y="338" width="80" height="30" as="geometry" />
        </mxCell>
        <mxCell id="BUbnw9Mv0IqS4cnp5p8G-37" value="" style="endArrow=none;html=1;rounded=0;" edge="1" parent="WIyWlLk6GJQsqaUBKTNV-1">
          <mxGeometry width="50" height="50" relative="1" as="geometry">
            <mxPoint x="440" y="640" as="sourcePoint" />
            <mxPoint x="440" y="30" as="targetPoint" />
          </mxGeometry>
        </mxCell>
        <mxCell id="BUbnw9Mv0IqS4cnp5p8G-38" value="Penyewa" style="text;html=1;align=center;verticalAlign=middle;resizable=0;points=[];autosize=1;strokeColor=none;fillColor=none;" vertex="1" parent="WIyWlLk6GJQsqaUBKTNV-1">
          <mxGeometry x="295" y="28" width="70" height="30" as="geometry" />
        </mxCell>
        <mxCell id="BUbnw9Mv0IqS4cnp5p8G-39" value="Petugas" style="text;html=1;align=center;verticalAlign=middle;resizable=0;points=[];autosize=1;strokeColor=none;fillColor=none;" vertex="1" parent="WIyWlLk6GJQsqaUBKTNV-1">
          <mxGeometry x="505" y="38" width="70" height="30" as="geometry" />
        </mxCell>
        <mxCell id="BUbnw9Mv0IqS4cnp5p8G-40" value="Penyewaan Lapangan Futsal" style="swimlane;whiteSpace=wrap;html=1;" vertex="1" parent="WIyWlLk6GJQsqaUBKTNV-1">
          <mxGeometry x="205" y="10" width="435" height="630" as="geometry" />
        </mxCell>
        <mxCell id="BUbnw9Mv0IqS4cnp5p8G-41" value="" style="endArrow=none;html=1;rounded=0;" edge="1" parent="WIyWlLk6GJQsqaUBKTNV-1">
          <mxGeometry width="50" height="50" relative="1" as="geometry">
            <mxPoint x="210" y="70" as="sourcePoint" />
            <mxPoint x="640" y="70" as="targetPoint" />
          </mxGeometry>
        </mxCell>
      </root>
    </mxGraphModel>
  </diagram>
</mxfile>
